<svg enable-background="new 0 0 76.00 76.00" height="76" viewBox="0 0 76 76" width="76" xmlns="http://www.w3.org/2000/svg"><path d="m38 19c10.4934 0 19 8.5066 19 19s-8.5066 19-19 19-19-8.5066-19-19 8.5066-19 19-19zm0 4c-8.2843 0-15 6.7157-15 15s6.7157 15 15 15 15-6.7157 15-15-6.7157-15-15-15zm0 3c6.6274 0 12 5.3726 12 12s-5.3726 12-12 12-12-5.3726-12-12 5.3726-12 12-12zm-8 12c0 2.6466 1.2851 4.993 3.2654 6.4492l1.7346-5.6992-4.5637-3.3627c-.2827.8188-.4363 1.6978-.4363 2.6127zm8 8c1.7591 0 3.3855-.5677 4.7061-1.53l-4.7061-3.22-4.7062 3.22c1.3206.9623 2.9471 1.53 4.7062 1.53zm8-8c0-.8644-.1371-1.6967-.3907-2.4765l-4.6093 3.2265 1.7345 5.6993c1.9803-1.4563 3.2655-3.8027 3.2655-6.4493zm-6-2.75h5.5148c-1.1115-3.0366-4.0111-5.2114-7.4237-5.2495zm-4 0 1.9089-5.2495c-3.4126.0381-6.3122 2.2129-7.4237 5.2495z" stroke-linejoin="round"/></svg>